<svg width="670" height="670" viewBox="0 0 670 670" fill="none" xmlns="http://www.w3.org/2000/svg">
<path d="M623.1 244.764C601.66 174.669 546.519 118.563 481.261 88.9894C419.045 60.769 340.36 46.9 281.4 90.249C242.54 118.845 220.564 164.673 185.014 196.739C167.339 212.685 147.99 217.871 126.965 227.398C75.71 250.647 32.8166 295.457 29.2924 354.591C23.3964 453.443 101.76 521.823 189.195 544.241C304.743 573.882 391.106 573.882 470.474 541.869C511.692 525.253 553.634 504.215 583.356 469.804C628.299 417.745 640.708 343.844 630.497 276.938C628.807 266.049 626.336 255.297 623.1 244.764Z" fill="#BD465F"/>
<path opacity="0.8" d="M623.1 244.764C601.66 174.669 546.519 118.563 481.261 88.9894C419.045 60.769 340.36 46.9 281.4 90.249C242.54 118.845 220.564 164.673 185.014 196.739C167.339 212.685 147.99 217.871 126.965 227.398C75.71 250.647 32.8166 295.457 29.2924 354.591C23.3964 453.443 101.76 521.823 189.195 544.241C304.743 573.882 391.106 573.882 470.474 541.869C511.692 525.253 553.634 504.215 583.356 469.804C628.299 417.745 640.708 343.844 630.497 276.938C628.807 266.049 626.336 255.297 623.1 244.764Z" fill="white"/>
<path d="M556.1 52.26H96.48V330.98H556.1V52.26Z" fill="white" stroke="#263238" stroke-linecap="round" stroke-linejoin="round"/>
<path d="M361.358 88.8822H112.118V110.657H361.358V88.8822Z" stroke="#263238" stroke-linecap="round" stroke-linejoin="round"/>
<path d="M361.358 122.999H112.118V248.798H361.358V122.999Z" stroke="#263238" stroke-linecap="round" stroke-linejoin="round"/>
<path d="M544.281 213.944H375.481V314.15H544.281V213.944Z" stroke="#263238" stroke-linecap="round" stroke-linejoin="round"/>
<path d="M375.481 314.15L544.281 213.944" stroke="#263238" stroke-linecap="round" stroke-linejoin="round"/>
<path d="M544.281 314.15L375.481 213.944" stroke="#263238" stroke-linecap="round" stroke-linejoin="round"/>
<path d="M317.674 267.906H358.517" stroke="#263238" stroke-linecap="round" stroke-linejoin="round"/>
<path d="M245.22 267.906H309.192" stroke="#263238" stroke-linecap="round" stroke-linejoin="round"/>
<path d="M146.556 267.906H232.879" stroke="#263238" stroke-linecap="round" stroke-linejoin="round"/>
<path d="M113.418 267.906H136.533" stroke="#263238" stroke-linecap="round" stroke-linejoin="round"/>
<path d="M173.53 279.457H358.517" stroke="#263238" stroke-linecap="round" stroke-linejoin="round"/>
<path d="M113.418 279.457H164.284" stroke="#263238" stroke-linecap="round" stroke-linejoin="round"/>
<path d="M271.417 291.021H358.517" stroke="#263238" stroke-linecap="round" stroke-linejoin="round"/>
<path d="M185.094 291.021H259.089" stroke="#263238" stroke-linecap="round" stroke-linejoin="round"/>
<path d="M113.418 291.021H176.612" stroke="#263238" stroke-linecap="round" stroke-linejoin="round"/>
<path d="M257.548 302.585H358.517" stroke="#263238" stroke-linecap="round" stroke-linejoin="round"/>
<path d="M175.071 302.585H247.525" stroke="#263238" stroke-linecap="round" stroke-linejoin="round"/>
<path d="M113.418 302.585H166.602" stroke="#263238" stroke-linecap="round" stroke-linejoin="round"/>
<path d="M313.815 314.15H358.517" stroke="#263238" stroke-linecap="round" stroke-linejoin="round"/>
<path d="M208.223 314.15H305.332" stroke="#263238" stroke-linecap="round" stroke-linejoin="round"/>
<path d="M164.284 314.15H199.74" stroke="#263238" stroke-linecap="round" stroke-linejoin="round"/>
<path d="M129.605 314.15H150.415" stroke="#263238" stroke-linecap="round" stroke-linejoin="round"/>
<path d="M113.418 314.15H129.605" stroke="#263238" stroke-linecap="round" stroke-linejoin="round"/>
<path d="M556.1 52.26H96.48V72.36H556.1V52.26Z" fill="#BD465F" stroke="#263238" stroke-linecap="round" stroke-linejoin="round"/>
<path d="M545.742 58.29H162.502V66.397H545.742V58.29Z" fill="white" stroke="#263238" stroke-linecap="round" stroke-linejoin="round"/>
<path d="M154.515 58.29H103.555V66.397H154.515V58.29Z" fill="white" stroke="#263238" stroke-linecap="round" stroke-linejoin="round"/>
<path d="M582.498 100.446H408.298V199.606H582.498V100.446Z" fill="white" stroke="#263238" stroke-linecap="round" stroke-linejoin="round"/>
<path d="M582.498 180.846H408.298V199.606H582.498V180.846Z" fill="white" stroke="#263238" stroke-linecap="round" stroke-linejoin="round"/>
<path d="M518.325 142.388L472.484 115.923V168.853L518.325 142.388Z" fill="#BD465F" stroke="#263238" stroke-linecap="round" stroke-linejoin="round"/>
<path d="M414.02 95.2472H403.997V105.27H414.02V95.2472Z" fill="white" stroke="#263238" stroke-linecap="round" stroke-linejoin="round"/>
<path d="M587.054 95.2472H577.031V105.27H587.054V95.2472Z" fill="white" stroke="#263238" stroke-linecap="round" stroke-linejoin="round"/>
<path d="M414.02 192.746H403.997V202.769H414.02V192.746Z" fill="white" stroke="#263238" stroke-linecap="round" stroke-linejoin="round"/>
<path d="M587.054 192.746H577.031V202.769H587.054V192.746Z" fill="white" stroke="#263238" stroke-linecap="round" stroke-linejoin="round"/>
<path d="M200.116 182.026V199.446H195.787V160.693H200.116V178.113H209.643V160.693H213.958V199.472H209.643V182.052L200.116 182.026Z" fill="#263238"/>
<path d="M223.981 199.472V164.632H216.839V160.693H235.398V164.632H228.256V199.472H223.981Z" fill="#263238"/>
<path d="M252.617 199.419H248.463L242.044 168.599V199.513H238.279V160.693H244.309L250.687 191.62L256.838 160.653H262.868V199.432H258.767V168.291L252.617 199.419Z" fill="#263238"/>
<path d="M267.303 199.472V160.693H271.618V195.533H282.74V199.472H267.303Z" fill="#263238"/>
<path d="M559.048 194.97L568.307 236.51C568.393 236.784 568.558 237.027 568.782 237.208C569.005 237.389 569.277 237.5 569.563 237.527C569.849 237.554 570.137 237.496 570.39 237.361C570.644 237.225 570.851 237.018 570.987 236.765L576.991 224.128C577.108 223.874 577.298 223.66 577.536 223.512C577.774 223.365 578.051 223.29 578.331 223.298L592.293 224.061C592.589 224.075 592.882 223.998 593.134 223.841C593.385 223.684 593.583 223.455 593.7 223.183C593.818 222.911 593.85 222.61 593.793 222.319C593.736 222.029 593.591 221.762 593.379 221.556L561.46 193.536C561.229 193.32 560.934 193.184 560.619 193.15C560.305 193.116 559.987 193.185 559.715 193.347C559.443 193.508 559.231 193.754 559.111 194.047C558.99 194.34 558.968 194.664 559.048 194.97Z" fill="#263238"/>
<path d="M597.184 231.82H584.682V244.322H597.184V231.82Z" fill="white" stroke="#263238" stroke-width="0.75" stroke-linecap="round" stroke-linejoin="round"/>
<path d="M585.553 230.828H583.677V232.704H585.553V230.828Z" fill="#263238"/>
<path d="M591.905 230.828H590.029V232.704H591.905V230.828Z" fill="#263238"/>
<path d="M597.988 230.828H596.112V232.704H597.988V230.828Z" fill="#263238"/>
<path d="M585.553 237.153H583.677V239.029H585.553V237.153Z" fill="#263238"/>
<path d="M591.905 237.153H590.029V239.029H591.905V237.153Z" fill="#263238"/>
<path d="M597.988 237.153H596.112V239.029H597.988V237.153Z" fill="#263238"/>
<path d="M585.553 243.237H583.677V245.113H585.553V243.237Z" fill="#263238"/>
<path d="M591.905 243.237H590.029V245.113H591.905V243.237Z" fill="#263238"/>
<path d="M597.988 243.237H596.112V245.113H597.988V243.237Z" fill="#263238"/>
<path d="M256.57 424.566L252.603 425.343L241.12 368.567L245.086 367.79L256.57 424.566Z" fill="white" stroke="#263238" stroke-linecap="round" stroke-linejoin="round"/>
<path d="M327.804 423.44H252.362V426.133H327.804V423.44Z" fill="white" stroke="#263238" stroke-linecap="round" stroke-linejoin="round"/>
<path d="M465.248 564.877H348.681V570.572H465.248V564.877Z" fill="white" stroke="#263238" stroke-linecap="round" stroke-linejoin="round"/>
<path d="M482.842 389.391C482.842 389.391 471.801 476.919 468.745 504.041C465.69 531.163 477.697 616.306 477.697 616.306H470.688L456.927 519.826H354.095L347.516 614.578H342.263L351.08 504.483V492.517C351.08 491.905 351.201 491.298 351.435 490.732C351.669 490.167 352.013 489.653 352.446 489.22C352.879 488.787 353.393 488.443 353.959 488.209C354.524 487.974 355.131 487.854 355.743 487.854H454.26L469.683 379.769C469.683 379.769 471.425 369.706 480.176 372.775C488.926 375.843 482.842 389.391 482.842 389.391Z" fill="#263238" stroke="#263238" stroke-linecap="round" stroke-linejoin="round"/>
<path d="M480.216 372.775C479.988 372.687 479.755 372.611 479.519 372.547C480.189 373.887 480.591 376.218 479.787 380.587C478.032 390.221 459.553 504.872 459.553 504.872H351.013L342.316 615.851H347.569L359.013 519.746H456.94L470.702 616.226H477.71C477.71 616.226 465.65 531.096 468.759 503.961C471.868 476.826 484.919 391.307 484.919 391.307C484.919 391.307 488.979 375.83 480.216 372.775Z" fill="white" stroke="#263238" stroke-linecap="round" stroke-linejoin="round"/>
<path d="M375.334 397.029L320.568 400.137L296.14 414.261L291.316 422.529L295.095 423.212L303.711 419.42C303.711 419.42 313.359 417.705 316.119 416.673C318.88 415.641 326.424 407.36 326.424 407.36L377.344 415.628L375.334 397.029Z" fill="white" stroke="#263238" stroke-linecap="round" stroke-linejoin="round"/>
<path d="M296.341 566.284C296.341 566.284 286.693 583.168 285.313 583.168C283.933 583.168 272.757 585.647 263.873 581.171C254.989 576.696 248.369 573.252 245.609 577.379C244.228 579.309 243.073 581.391 242.165 583.583C242.165 583.583 250.433 595.295 258.017 599.422C265.601 603.549 268.844 601.419 276.777 605.894C284.71 610.37 285.393 613.814 291.932 612.447C298.472 611.08 302.277 590.056 303.992 587.644C305.708 585.232 312.22 571.791 312.22 571.791L296.341 566.284Z" fill="white" stroke="#263238" stroke-linecap="round" stroke-linejoin="round"/>
<path d="M286.974 581.426C286.184 582.498 285.634 583.168 285.313 583.168C283.973 583.168 272.757 585.647 263.873 581.171C254.989 576.696 248.369 573.252 245.609 577.379C244.228 579.31 243.073 581.391 242.165 583.583C242.165 583.583 250.433 595.295 258.017 599.422C265.601 603.549 268.844 601.419 276.777 605.894C284.71 610.37 285.393 613.814 291.932 612.447C297.735 611.214 301.312 594.612 303.322 589.144C297.373 587.617 290.994 583.985 286.974 581.426Z" fill="#263238" stroke="#263238" stroke-linecap="round" stroke-linejoin="round"/>
<path d="M291.852 612.447C292.048 612.399 292.241 612.336 292.428 612.259C292.493 612.238 292.556 612.211 292.616 612.179L292.991 611.991L293.205 611.857L293.54 611.63L293.755 611.455L294.076 611.174L294.277 610.973C294.396 610.864 294.508 610.747 294.612 610.625L294.8 610.41C294.907 610.276 295.028 610.142 295.135 609.995L295.296 609.794L295.684 609.231L295.778 609.097C296.046 608.695 296.301 608.253 296.555 607.757C289.855 607.757 285.299 603.536 278.077 601.057C269.126 597.962 268.616 600.454 262.077 595.965C255.538 591.476 254.841 588.742 254.841 588.742L260.643 579.577C253.314 575.959 247.967 573.734 245.542 577.366C244.161 579.296 243.006 581.378 242.098 583.57C242.098 583.57 250.366 595.282 257.95 599.409C265.534 603.536 268.777 601.405 276.71 605.881C284.643 610.357 285.313 613.814 291.852 612.447Z" fill="white" stroke="#263238" stroke-linecap="round" stroke-linejoin="round"/>
<path d="M306.672 480.162L276.04 556.636L312.555 577.312C312.555 577.312 351.415 489.127 351.817 487.398C352.219 485.67 359.053 483.954 359.053 483.954L386.925 487.76C386.925 487.76 344.903 469.161 332.508 466.4C320.113 463.64 311.831 465.704 306.672 480.162Z" fill="#BD465F" stroke="#263238" stroke-linecap="round" stroke-linejoin="round"/>
<path d="M338.471 539.645L355.703 555.832C355.703 555.832 349.847 570.304 342.96 579.604C336.072 588.903 335.375 594.344 338.471 596.474C341.566 598.605 347.77 598.203 351.871 595.442C355.971 592.682 379.421 569.607 382.181 565.48C383.068 564.075 383.421 562.398 383.175 560.755C382.929 559.112 382.101 557.612 380.841 556.529C379.81 555.832 357.083 528.617 357.083 528.617L338.471 539.645Z" fill="white" stroke="#263238" stroke-linecap="round" stroke-linejoin="round"/>
<path d="M382.222 565.48C383.109 564.075 383.461 562.398 383.215 560.755C382.969 559.112 382.141 557.612 380.882 556.529C380.399 556.194 375.053 549.936 369.545 543.424C364.507 549.521 355.408 552.924 353.398 553.634L355.743 555.832C355.743 555.832 349.887 570.304 343 579.604C336.112 588.903 335.415 594.344 338.511 596.474C341.606 598.605 347.81 598.203 351.911 595.442C356.011 592.682 379.461 569.607 382.222 565.48Z" fill="#263238" stroke="#263238" stroke-linecap="round" stroke-linejoin="round"/>
<path d="M381.284 556.904C381.108 559.274 380.237 561.54 378.778 563.416C374.651 568.575 351.562 589.935 351.562 589.935L340.842 582.538C335.911 590.069 335.657 594.598 338.404 596.474C341.512 598.551 347.703 598.203 351.804 595.442C355.904 592.682 379.354 569.607 382.114 565.48C382.962 564.166 383.342 562.604 383.191 561.047C383.04 559.491 382.368 558.031 381.284 556.904Z" fill="white" stroke="#263238" stroke-linecap="round" stroke-linejoin="round"/>
<path d="M371.542 555.149C371.577 555.871 371.394 556.586 371.019 557.204C370.643 557.821 370.091 558.312 369.433 558.613C368.776 558.914 368.044 559.01 367.331 558.891C366.618 558.772 365.957 558.442 365.434 557.943C364.91 557.445 364.548 556.801 364.393 556.095C364.239 555.389 364.3 554.653 364.568 553.982C364.836 553.31 365.299 552.735 365.897 552.329C366.495 551.923 367.201 551.706 367.924 551.705C368.86 551.683 369.766 552.034 370.444 552.679C371.123 553.325 371.517 554.213 371.542 555.149Z" fill="white"/>
<path d="M382.57 430.797L380.841 436.652C380.841 436.652 328.836 437.336 306.096 443.54C283.356 449.744 277.166 453.188 278.881 465.931C280.596 478.675 315.744 552.08 315.744 552.08C322.817 550.095 329.726 547.564 336.407 544.509C344.319 540.653 351.821 536.006 358.798 530.64L332.615 480.685C332.615 480.685 362.591 486.889 395.997 489.984C429.403 493.08 443.54 489.636 449.047 479.653C454.555 469.67 445.255 429.711 445.255 429.711L382.918 427.634L382.57 430.797Z" fill="#BD465F" stroke="#263238" stroke-linecap="round" stroke-linejoin="round"/>
<path d="M309.54 464.243C308.367 463.094 307.336 461.807 306.471 460.411" stroke="#263238" stroke-linecap="round" stroke-linejoin="round"/>
<path d="M332.615 480.738C325.652 476.767 319.012 472.256 312.756 467.245" stroke="#263238" stroke-linecap="round" stroke-linejoin="round"/>
<path d="M336.474 509.508L339.234 510.848" stroke="#263238" stroke-linecap="round" stroke-linejoin="round"/>
<path d="M288.247 468.893C300.047 484.329 314.819 497.246 331.69 506.882" stroke="#263238" stroke-linecap="round" stroke-linejoin="round"/>
<path d="M432.565 453.63C433.881 454.652 435.13 455.758 436.304 456.94" stroke="#263238" stroke-linecap="round" stroke-linejoin="round"/>
<path d="M384.285 437.336C384.285 437.336 409.531 439.292 427.353 450.039" stroke="#263238" stroke-linecap="round" stroke-linejoin="round"/>
<path d="M418.737 443.192C418.737 443.192 435.272 443.54 441.811 450.428" stroke="#263238" stroke-linecap="round" stroke-linejoin="round"/>
<path d="M387.394 327.456C387.394 327.456 375.682 362.296 373.994 372.922C372.306 383.548 373.311 430.1 373.311 430.1C373.311 430.1 400.861 438.368 416.365 436.652C431.869 434.937 451.205 431.828 451.205 431.828C451.205 431.828 447.761 370.188 444.666 348.815C441.57 327.442 434.334 315.047 427.447 309.888C422.867 306.523 418.028 303.526 412.975 300.924L387.394 327.456Z" fill="#263238" stroke="#263238" stroke-linecap="round" stroke-linejoin="round"/>
<path d="M326.759 273.722C327.507 278.087 329.027 282.285 331.248 286.117C334.692 291.624 339.516 294.036 338.136 299.517C336.755 304.997 336.796 308.816 340.816 309.151L344.956 309.5C344.956 309.5 353.224 323.623 359.428 323.623C365.632 323.623 383.24 307.825 383.24 307.825C383.24 307.825 373.94 264.074 373.94 262.694C373.94 261.313 324.682 267.866 324.682 267.866L326.759 273.722Z" fill="white" stroke="#263238" stroke-linecap="round" stroke-linejoin="round"/>
<path d="M347.261 291.423C347.918 292.763 347.69 294.277 346.738 294.733C345.787 295.189 344.501 294.438 343.844 293.058C343.187 291.678 343.415 290.204 344.367 289.762C345.318 289.319 346.604 290.056 347.261 291.423Z" fill="#263238"/>
<path d="M338.819 287.497C338.819 287.497 338.471 282.673 345.707 283.705" stroke="#263238" stroke-linecap="round" stroke-linejoin="round"/>
<path d="M348.882 310.639C349.097 311.403 357.298 310.947 356.038 303.684" stroke="#263238" stroke-linecap="round" stroke-linejoin="round"/>
<path d="M396.64 257.521C395.501 243.572 378.135 248.918 370.001 253.139L369.773 252.711L337.05 262.01C336.782 263.338 336.937 264.716 337.492 265.951C338.047 267.186 338.975 268.217 340.146 268.898C346.996 273.999 355.089 277.169 363.582 278.077C366.021 292.656 369.425 314.444 369.425 322.632C369.425 335.375 364.601 340.199 364.601 340.199C364.601 340.199 386.644 333.312 399.441 321.252C406.875 314.327 413.363 306.451 418.737 297.828C418.737 297.828 398.074 274.405 396.64 257.521Z" fill="#BD465F" stroke="#263238" stroke-linecap="round" stroke-linejoin="round"/>
<path d="M363.636 278.077L362.658 273.521" stroke="#263238" stroke-linecap="round" stroke-linejoin="round"/>
<path d="M379.984 309.781C380.265 311.349 380.493 312.81 380.654 314.083" stroke="#263238" stroke-linecap="round" stroke-linejoin="round"/>
<path d="M371.461 273.521C371.461 273.521 376.326 291.49 379.073 304.984" stroke="#263238" stroke-linecap="round" stroke-linejoin="round"/>
<path d="M387.729 278.037L394.416 295.711" stroke="#263238" stroke-linecap="round" stroke-linejoin="round"/>
<path d="M384.861 270.452L386.59 275.022" stroke="#263238" stroke-linecap="round" stroke-linejoin="round"/>
<path d="M393.277 270.841L396.332 278.492" stroke="#263238" stroke-linecap="round" stroke-linejoin="round"/>
<path d="M323.382 273.186C323.382 273.186 300.334 285.42 308.012 285.42C315.691 285.42 354.122 269.541 355.649 269.541C357.177 269.541 330.042 272.154 323.382 273.186Z" fill="#757575" stroke="#263238" stroke-linecap="round" stroke-linejoin="round"/>
<path d="M323.382 273.186C323.382 273.186 309.594 277.554 315.744 262.694C321.895 247.833 363.77 226.179 381.19 226.179C398.61 226.179 411.487 252.175 408.928 260.375C406.368 268.576 400.727 269.595 398.208 269.595C395.689 269.595 323.382 273.186 323.382 273.186Z" fill="#757575" stroke="#263238" stroke-linecap="round" stroke-linejoin="round"/>
<path d="M330.042 268.576C330.042 268.576 355.14 269.085 376.661 266.017C398.181 262.948 406.878 259.866 406.878 259.866" stroke="#263238" stroke-linecap="round" stroke-linejoin="round"/>
<path d="M403.809 266.526L370.001 267.035" stroke="#263238" stroke-linecap="round" stroke-linejoin="round"/>
<path d="M382.57 401.853L378.094 406.02C378.094 406.02 322.283 398.784 318.491 399.816C314.699 400.848 301.272 404.64 301.272 404.64L290.552 405.323L281.949 419.795H284.696L290.901 411.179H294.8L288.247 418.763L285.42 422.864L295.055 423.212L296.462 422.02L301.956 417.356L300.227 422.529H302.291L307.115 414.261L313.667 410.817L320.555 405.993C320.555 405.993 390.824 430.448 392.54 431.453C394.255 432.458 398.06 435.245 401.156 432.485C404.251 429.725 412.519 406.65 412.519 406.65L382.57 401.853Z" fill="white" stroke="#263238" stroke-linecap="round" stroke-linejoin="round"/>
<path d="M289.735 422.395C293.308 419.589 296.466 416.291 299.115 412.599C299.115 412.599 299.584 408.968 302.746 408.392" stroke="#263238" stroke-linecap="round" stroke-linejoin="round"/>
<path d="M301.969 417.356L303.523 411.367L305.239 409.986" stroke="#263238" stroke-linecap="round" stroke-linejoin="round"/>
<path d="M294.8 411.152C295.708 409.698 296.808 408.373 298.07 407.213C299.235 406.516 299.946 406.167 299.946 406.167" stroke="#263238" stroke-linecap="round" stroke-linejoin="round"/>
<path d="M353.09 417.356C371.743 423.896 391.655 430.944 392.62 431.48C394.349 432.512 398.141 435.272 401.236 432.512C404.332 429.751 412.599 406.677 412.599 406.677L382.637 401.853L378.094 406.02C378.094 406.02 367.83 404.68 355.824 403.246L353.09 417.356Z" fill="#757575" stroke="#263238" stroke-linecap="round" stroke-linejoin="round"/>
<path d="M392.62 349.499L377.746 399.441C377.746 399.441 379.086 406.342 392.901 410.161C400.512 412.386 408.395 413.545 416.325 413.604L427.353 351.603" fill="#263238"/>
<path d="M392.62 349.499L377.746 399.441C377.746 399.441 379.086 406.342 392.901 410.161C400.512 412.386 408.395 413.545 416.325 413.604L427.353 351.603" stroke="#263238" stroke-linecap="round" stroke-linejoin="round"/>
<path d="M391.628 354.001L378.188 395.662" stroke="#707070" stroke-linecap="round" stroke-linejoin="round"/>
<path d="M424.445 367.348L417.839 409.772" stroke="#707070" stroke-linecap="round" stroke-linejoin="round"/>
<path d="M425.892 358.021L425.169 362.684" stroke="#707070" stroke-linecap="round" stroke-linejoin="round"/>
<path d="M268.67 429.47H256.61V608.762H268.67V429.47Z" fill="#263238" stroke="#263238" stroke-linecap="round" stroke-linejoin="round"/>
<path d="M350.879 426.308H171.373V433.718H350.879V426.308Z" fill="#757575" stroke="#263238" stroke-linecap="round" stroke-linejoin="round"/>
<path d="M327.268 616.092H198.039C198.042 614.128 198.824 612.245 200.213 610.856C201.602 609.467 203.485 608.685 205.449 608.682H319.858C321.822 608.685 323.705 609.467 325.094 610.856C326.483 612.245 327.265 614.128 327.268 616.092Z" fill="#757575" stroke="#263238" stroke-linecap="round" stroke-linejoin="round"/>
<path d="M223.257 427.621H199.673L196.136 383.508H226.795L223.257 427.621Z" fill="#BD465F" stroke="#263238" stroke-linecap="round" stroke-linejoin="round"/>
<path d="M228.055 379.153H193.992V389.203H228.055V379.153Z" fill="white" stroke="#263238" stroke-linecap="round" stroke-linejoin="round"/>
<path d="M224.236 415.387L225.535 399.24H197.395L198.695 415.387H224.236Z" fill="white" stroke="#263238" stroke-linecap="round" stroke-linejoin="round"/>
<path d="M606.122 616.306H622.202" stroke="#263238" stroke-linecap="round" stroke-linejoin="round"/>
<path d="M579.322 616.306H596.3" stroke="#263238" stroke-linecap="round" stroke-linejoin="round"/>
<path d="M171.078 616.306H569.5" stroke="#263238" stroke-linecap="round" stroke-linejoin="round"/>
<path d="M60.9298 616.306H158.562" stroke="#263238" stroke-linecap="round" stroke-linejoin="round"/>
</svg>
