<svg width="293" height="50" viewBox="0 0 293 50" fill="none" xmlns="http://www.w3.org/2000/svg">
<path d="M25.0119 14.0136H34.7769C35.4628 17.5513 38.5824 20.2312 42.3176 20.2312C46.5537 20.2312 50 16.7848 50 12.5487C50 8.31269 46.5536 4.86621 42.3176 4.86621C38.5824 4.86621 35.4629 7.54619 34.7769 11.0838H25.0114C24.2835 4.85215 18.9726 0 12.5487 0C5.6293 0 0 5.6293 0 12.5487C0 19.4898 5.60771 25.0975 12.5487 25.0975C15.379 25.0975 18.1185 24.1489 20.3305 22.4021L27.6068 29.6785C26.2003 31.4561 25.2647 33.622 24.9886 35.9866H15.2231C14.5372 32.4489 11.4176 29.769 7.68242 29.769C3.44639 29.7688 0 33.2152 0 37.4513C0 41.6873 3.44639 45.1337 7.68242 45.1337C11.4176 45.1337 14.5371 42.4537 15.2231 38.9161H24.9881C25.7199 45.2054 31.04 50 37.4513 50C44.3925 50 50 44.3922 50 37.4513C50 30.5319 44.3707 24.9025 37.4513 24.9025C34.5183 24.9025 31.8173 25.9143 29.6783 27.6067L22.4013 20.3297C23.814 18.5396 24.7384 16.3644 25.0119 14.0136ZM42.3176 7.7959C44.9383 7.7959 47.0703 9.92803 47.0703 12.5486C47.0703 15.1692 44.9382 17.3014 42.3176 17.3014C39.697 17.3014 37.5648 15.1692 37.5648 12.5486C37.5648 9.92803 39.6969 7.7959 42.3176 7.7959ZM2.92969 12.5487C2.92969 7.24473 7.24473 2.92969 12.5487 2.92969C17.8527 2.92969 22.1678 7.24473 22.1678 12.5487C22.1678 14.9219 21.3043 17.1269 19.8427 18.8268C19.3245 16.9005 18.0626 15.2769 16.3846 14.2832C17.0272 13.4588 17.4115 12.4236 17.4115 11.2998C17.4115 8.61846 15.2301 6.43711 12.5488 6.43711C9.86758 6.43711 7.68613 8.61856 7.68613 11.2998C7.68613 12.4236 8.07041 13.4588 8.71309 14.2832C7.03506 15.2769 5.77314 16.9005 5.25498 18.8268C3.79316 17.1269 2.92969 14.9219 2.92969 12.5487ZM10.6156 11.2997C10.6156 10.2338 11.4828 9.3667 12.5486 9.3667C13.6145 9.3667 14.4816 10.2339 14.4816 11.2997C14.4816 12.3655 13.6145 13.2327 12.5486 13.2327C11.4828 13.2327 10.6156 12.3656 10.6156 11.2997ZM7.925 20.9899C7.925 18.0242 10.1468 16.1625 12.5486 16.1625C14.9277 16.1625 17.1723 17.998 17.1723 20.9899C14.2421 22.591 10.7418 22.529 7.925 20.9899ZM7.68242 42.2041C5.06182 42.2041 2.92969 40.072 2.92969 37.4513C2.92969 34.8306 5.06182 32.6985 7.68242 32.6985C10.303 32.6985 12.4352 34.8307 12.4352 37.4513C12.4352 40.0719 10.3031 42.2041 7.68242 42.2041ZM32.8276 45.8926C32.8276 42.9273 35.0489 41.0656 37.4504 41.0651H37.4514C37.4514 41.0651 37.452 41.0651 37.4523 41.0651C39.8302 41.0656 42.0751 42.9001 42.0751 45.8925C39.2196 47.4527 35.7196 47.4728 32.8276 45.8926ZM35.5183 36.2023C35.5183 35.1364 36.3854 34.2693 37.4513 34.2693C38.5171 34.2693 39.3843 35.1365 39.3843 36.2023C39.3843 37.2681 38.5174 38.1351 37.4519 38.1354C37.4517 38.1354 37.4515 38.1354 37.4513 38.1354C37.4511 38.1354 37.4509 38.1354 37.4507 38.1354C36.3852 38.1351 35.5183 37.2681 35.5183 36.2023ZM47.0703 37.4513C47.0703 39.8244 46.2068 42.0294 44.7452 43.7293C44.2271 41.803 42.9651 40.1794 41.2872 39.1857C41.9299 38.3613 42.3142 37.3262 42.3142 36.2023C42.3142 33.521 40.1327 31.3396 37.4515 31.3396C34.7702 31.3396 32.5888 33.5211 32.5888 36.2023C32.5888 37.3262 32.973 38.3613 33.6157 39.1857C31.9378 40.1794 30.6758 41.803 30.1577 43.7293C28.6961 42.0294 27.8326 39.8244 27.8326 37.4513C27.8326 32.1473 32.1477 27.8322 37.4517 27.8322C42.7557 27.8322 47.0703 32.1474 47.0703 37.4513Z" fill="white"/>
<path d="M61.096 39V14.052H76.144V17.04H64.588V24.564H74.848V27.516H64.588V39H61.096ZM86.1084 19.884C86.3964 19.884 86.7204 19.908 87.0804 19.956C87.4644 19.98 87.8364 20.028 88.1964 20.1C88.5564 20.148 88.8804 20.208 89.1684 20.28C89.4804 20.328 89.7084 20.376 89.8524 20.424L89.2764 23.34C89.0124 23.244 88.5684 23.136 87.9444 23.016C87.3444 22.872 86.5644 22.8 85.6044 22.8C84.9804 22.8 84.3564 22.872 83.7324 23.016C83.1324 23.136 82.7364 23.22 82.5444 23.268V39H79.1964V21.072C79.9884 20.784 80.9724 20.52 82.1484 20.28C83.3244 20.016 84.6444 19.884 86.1084 19.884ZM92.0391 29.676C92.0391 28.02 92.2791 26.58 92.7591 25.356C93.2391 24.108 93.8751 23.076 94.6671 22.26C95.4591 21.444 96.3711 20.832 97.4031 20.424C98.4351 20.016 99.4911 19.812 100.571 19.812C103.091 19.812 105.023 20.604 106.367 22.188C107.711 23.748 108.383 26.136 108.383 29.352C108.383 29.496 108.383 29.688 108.383 29.928C108.383 30.144 108.371 30.348 108.347 30.54H95.5311C95.6751 32.484 96.2391 33.96 97.2231 34.968C98.2071 35.976 99.7431 36.48 101.831 36.48C103.007 36.48 103.991 36.384 104.783 36.192C105.599 35.976 106.211 35.772 106.619 35.58L107.087 38.388C106.679 38.604 105.959 38.832 104.927 39.072C103.919 39.312 102.767 39.432 101.471 39.432C99.8391 39.432 98.4231 39.192 97.2231 38.712C96.0471 38.208 95.0751 37.524 94.3071 36.66C93.5391 35.796 92.9631 34.776 92.5791 33.6C92.2191 32.4 92.0391 31.092 92.0391 29.676ZM104.891 27.84C104.915 26.328 104.531 25.092 103.739 24.132C102.971 23.148 101.903 22.656 100.535 22.656C99.7671 22.656 99.0831 22.812 98.4831 23.124C97.9071 23.412 97.4151 23.796 97.0071 24.276C96.5991 24.756 96.2751 25.308 96.0351 25.932C95.8191 26.556 95.6751 27.192 95.6031 27.84H104.891ZM112.149 29.676C112.149 28.02 112.389 26.58 112.869 25.356C113.349 24.108 113.985 23.076 114.777 22.26C115.569 21.444 116.481 20.832 117.513 20.424C118.545 20.016 119.601 19.812 120.681 19.812C123.201 19.812 125.133 20.604 126.477 22.188C127.821 23.748 128.492 26.136 128.492 29.352C128.492 29.496 128.492 29.688 128.492 29.928C128.492 30.144 128.48 30.348 128.457 30.54H115.641C115.785 32.484 116.349 33.96 117.333 34.968C118.317 35.976 119.853 36.48 121.941 36.48C123.117 36.48 124.101 36.384 124.893 36.192C125.709 35.976 126.321 35.772 126.729 35.58L127.197 38.388C126.789 38.604 126.069 38.832 125.037 39.072C124.029 39.312 122.877 39.432 121.581 39.432C119.949 39.432 118.533 39.192 117.333 38.712C116.157 38.208 115.185 37.524 114.417 36.66C113.649 35.796 113.073 34.776 112.688 33.6C112.329 32.4 112.149 31.092 112.149 29.676ZM125.001 27.84C125.025 26.328 124.641 25.092 123.849 24.132C123.081 23.148 122.013 22.656 120.645 22.656C119.877 22.656 119.193 22.812 118.593 23.124C118.017 23.412 117.525 23.796 117.117 24.276C116.709 24.756 116.385 25.308 116.145 25.932C115.929 26.556 115.785 27.192 115.713 27.84H125.001ZM154.002 26.508C154.002 28.668 153.666 30.552 152.994 32.16C152.322 33.744 151.374 35.064 150.15 36.12C148.926 37.152 147.462 37.932 145.758 38.46C144.054 38.964 142.182 39.216 140.142 39.216C139.134 39.216 138.018 39.168 136.794 39.072C135.594 39 134.502 38.844 133.518 38.604V14.412C134.502 14.172 135.594 14.016 136.794 13.944C138.018 13.848 139.134 13.8 140.142 13.8C142.182 13.8 144.054 14.064 145.758 14.592C147.462 15.096 148.926 15.876 150.15 16.932C151.374 17.964 152.322 19.284 152.994 20.892C153.666 22.476 154.002 24.348 154.002 26.508ZM140.43 36.156C143.742 36.156 146.214 35.316 147.846 33.636C149.478 31.932 150.294 29.556 150.294 26.508C150.294 23.46 149.478 21.096 147.846 19.416C146.214 17.712 143.742 16.86 140.43 16.86C139.446 16.86 138.678 16.872 138.126 16.896C137.598 16.92 137.226 16.944 137.01 16.968V36.048C137.226 36.072 137.598 36.096 138.126 36.12C138.678 36.144 139.446 36.156 140.43 36.156ZM157.922 29.676C157.922 28.02 158.162 26.58 158.642 25.356C159.122 24.108 159.758 23.076 160.55 22.26C161.342 21.444 162.254 20.832 163.286 20.424C164.318 20.016 165.374 19.812 166.454 19.812C168.974 19.812 170.906 20.604 172.25 22.188C173.594 23.748 174.266 26.136 174.266 29.352C174.266 29.496 174.266 29.688 174.266 29.928C174.266 30.144 174.254 30.348 174.23 30.54H161.414C161.558 32.484 162.122 33.96 163.106 34.968C164.09 35.976 165.626 36.48 167.714 36.48C168.89 36.48 169.874 36.384 170.666 36.192C171.482 35.976 172.094 35.772 172.502 35.58L172.97 38.388C172.562 38.604 171.842 38.832 170.81 39.072C169.802 39.312 168.65 39.432 167.354 39.432C165.722 39.432 164.306 39.192 163.106 38.712C161.93 38.208 160.958 37.524 160.19 36.66C159.422 35.796 158.846 34.776 158.462 33.6C158.102 32.4 157.922 31.092 157.922 29.676ZM170.774 27.84C170.798 26.328 170.414 25.092 169.622 24.132C168.854 23.148 167.786 22.656 166.418 22.656C165.65 22.656 164.966 22.812 164.366 23.124C163.79 23.412 163.298 23.796 162.89 24.276C162.482 24.756 162.158 25.308 161.918 25.932C161.702 26.556 161.558 27.192 161.486 27.84H170.774ZM183.431 36.588C184.799 36.588 185.807 36.408 186.455 36.048C187.127 35.688 187.463 35.112 187.463 34.32C187.463 33.504 187.139 32.856 186.491 32.376C185.843 31.896 184.775 31.356 183.287 30.756C182.567 30.468 181.871 30.18 181.199 29.892C180.551 29.58 179.987 29.22 179.507 28.812C179.027 28.404 178.643 27.912 178.355 27.336C178.067 26.76 177.923 26.052 177.923 25.212C177.923 23.556 178.535 22.248 179.759 21.288C180.983 20.304 182.651 19.812 184.763 19.812C185.291 19.812 185.819 19.848 186.347 19.92C186.875 19.968 187.367 20.04 187.823 20.136C188.279 20.208 188.675 20.292 189.011 20.388C189.371 20.484 189.647 20.568 189.839 20.64L189.227 23.52C188.867 23.328 188.303 23.136 187.535 22.944C186.767 22.728 185.843 22.62 184.763 22.62C183.827 22.62 183.011 22.812 182.315 23.196C181.619 23.556 181.271 24.132 181.271 24.924C181.271 25.332 181.343 25.692 181.487 26.004C181.655 26.316 181.895 26.604 182.207 26.868C182.543 27.108 182.951 27.336 183.431 27.552C183.911 27.768 184.487 27.996 185.159 28.236C186.047 28.572 186.839 28.908 187.535 29.244C188.231 29.556 188.819 29.928 189.299 30.36C189.803 30.792 190.187 31.32 190.451 31.944C190.715 32.544 190.847 33.288 190.847 34.176C190.847 35.904 190.199 37.212 188.903 38.1C187.631 38.988 185.807 39.432 183.431 39.432C181.775 39.432 180.479 39.288 179.543 39C178.607 38.736 177.971 38.532 177.635 38.388L178.247 35.508C178.631 35.652 179.243 35.868 180.083 36.156C180.923 36.444 182.039 36.588 183.431 36.588ZM198.49 39H195.142V20.28H198.49V39ZM196.798 16.896C196.198 16.896 195.682 16.704 195.25 16.32C194.842 15.912 194.638 15.372 194.638 14.7C194.638 14.028 194.842 13.5 195.25 13.116C195.682 12.708 196.198 12.504 196.798 12.504C197.398 12.504 197.902 12.708 198.31 13.116C198.742 13.5 198.958 14.028 198.958 14.7C198.958 15.372 198.742 15.912 198.31 16.32C197.902 16.704 197.398 16.896 196.798 16.896ZM215.983 37.128C215.695 37.32 215.131 37.572 214.291 37.884C213.475 38.172 212.515 38.316 211.411 38.316C210.283 38.316 209.215 38.136 208.207 37.776C207.223 37.416 206.359 36.864 205.615 36.12C204.871 35.352 204.283 34.404 203.851 33.276C203.419 32.148 203.203 30.804 203.203 29.244C203.203 27.876 203.407 26.628 203.815 25.5C204.223 24.348 204.811 23.364 205.579 22.548C206.371 21.708 207.331 21.06 208.459 20.604C209.587 20.124 210.859 19.884 212.275 19.884C213.835 19.884 215.191 20.004 216.343 20.244C217.519 20.46 218.503 20.664 219.295 20.856V37.56C219.295 40.44 218.551 42.528 217.063 43.824C215.575 45.12 213.319 45.768 210.295 45.768C209.119 45.768 208.003 45.672 206.947 45.48C205.915 45.288 205.015 45.06 204.247 44.796L204.859 41.88C205.531 42.144 206.347 42.372 207.307 42.564C208.291 42.78 209.311 42.888 210.367 42.888C212.359 42.888 213.787 42.492 214.651 41.7C215.539 40.908 215.983 39.648 215.983 37.92V37.128ZM215.947 23.232C215.611 23.136 215.155 23.052 214.579 22.98C214.027 22.884 213.271 22.836 212.311 22.836C210.511 22.836 209.119 23.424 208.135 24.6C207.175 25.776 206.695 27.336 206.695 29.28C206.695 30.36 206.827 31.284 207.091 32.052C207.379 32.82 207.751 33.456 208.207 33.96C208.687 34.464 209.227 34.836 209.827 35.076C210.451 35.316 211.087 35.436 211.735 35.436C212.623 35.436 213.439 35.316 214.183 35.076C214.927 34.812 215.515 34.512 215.947 34.176V23.232ZM225.06 20.82C225.828 20.628 226.848 20.424 228.12 20.208C229.392 19.992 230.856 19.884 232.512 19.884C234 19.884 235.236 20.1 236.22 20.532C237.204 20.94 237.984 21.528 238.56 22.296C239.16 23.04 239.58 23.94 239.82 24.996C240.06 26.052 240.18 27.216 240.18 28.488V39H236.832V29.208C236.832 28.056 236.748 27.072 236.58 26.256C236.436 25.44 236.184 24.78 235.824 24.276C235.464 23.772 234.984 23.412 234.384 23.196C233.784 22.956 233.04 22.836 232.152 22.836C231.792 22.836 231.42 22.848 231.036 22.872C230.652 22.896 230.28 22.932 229.92 22.98C229.584 23.004 229.272 23.04 228.984 23.088C228.72 23.136 228.528 23.172 228.408 23.196V39H225.06V20.82ZM244.688 29.676C244.688 28.02 244.928 26.58 245.408 25.356C245.888 24.108 246.524 23.076 247.316 22.26C248.108 21.444 249.02 20.832 250.052 20.424C251.084 20.016 252.14 19.812 253.22 19.812C255.74 19.812 257.672 20.604 259.016 22.188C260.36 23.748 261.032 26.136 261.032 29.352C261.032 29.496 261.032 29.688 261.032 29.928C261.032 30.144 261.02 30.348 260.996 30.54H248.18C248.324 32.484 248.888 33.96 249.872 34.968C250.856 35.976 252.392 36.48 254.48 36.48C255.656 36.48 256.64 36.384 257.432 36.192C258.248 35.976 258.86 35.772 259.268 35.58L259.736 38.388C259.328 38.604 258.608 38.832 257.576 39.072C256.568 39.312 255.416 39.432 254.12 39.432C252.488 39.432 251.072 39.192 249.872 38.712C248.696 38.208 247.724 37.524 246.956 36.66C246.188 35.796 245.612 34.776 245.228 33.6C244.868 32.4 244.688 31.092 244.688 29.676ZM257.54 27.84C257.564 26.328 257.18 25.092 256.388 24.132C255.62 23.148 254.552 22.656 253.184 22.656C252.416 22.656 251.732 22.812 251.132 23.124C250.556 23.412 250.064 23.796 249.656 24.276C249.248 24.756 248.924 25.308 248.684 25.932C248.468 26.556 248.324 27.192 248.252 27.84H257.54ZM272.753 19.884C273.041 19.884 273.365 19.908 273.725 19.956C274.109 19.98 274.481 20.028 274.841 20.1C275.201 20.148 275.525 20.208 275.813 20.28C276.125 20.328 276.353 20.376 276.497 20.424L275.921 23.34C275.657 23.244 275.213 23.136 274.589 23.016C273.989 22.872 273.209 22.8 272.249 22.8C271.625 22.8 271.001 22.872 270.377 23.016C269.777 23.136 269.381 23.22 269.189 23.268V39H265.841V21.072C266.633 20.784 267.617 20.52 268.793 20.28C269.969 20.016 271.289 19.884 272.753 19.884ZM284.084 36.588C285.452 36.588 286.46 36.408 287.108 36.048C287.78 35.688 288.116 35.112 288.116 34.32C288.116 33.504 287.792 32.856 287.144 32.376C286.496 31.896 285.428 31.356 283.94 30.756C283.22 30.468 282.524 30.18 281.852 29.892C281.204 29.58 280.64 29.22 280.16 28.812C279.68 28.404 279.296 27.912 279.008 27.336C278.72 26.76 278.576 26.052 278.576 25.212C278.576 23.556 279.188 22.248 280.412 21.288C281.636 20.304 283.304 19.812 285.416 19.812C285.944 19.812 286.472 19.848 287 19.92C287.528 19.968 288.02 20.04 288.476 20.136C288.932 20.208 289.328 20.292 289.664 20.388C290.024 20.484 290.3 20.568 290.492 20.64L289.88 23.52C289.52 23.328 288.956 23.136 288.188 22.944C287.42 22.728 286.496 22.62 285.416 22.62C284.48 22.62 283.664 22.812 282.968 23.196C282.272 23.556 281.924 24.132 281.924 24.924C281.924 25.332 281.996 25.692 282.14 26.004C282.308 26.316 282.548 26.604 282.86 26.868C283.196 27.108 283.604 27.336 284.084 27.552C284.564 27.768 285.14 27.996 285.812 28.236C286.7 28.572 287.492 28.908 288.188 29.244C288.884 29.556 289.472 29.928 289.952 30.36C290.456 30.792 290.84 31.32 291.104 31.944C291.368 32.544 291.5 33.288 291.5 34.176C291.5 35.904 290.852 37.212 289.556 38.1C288.284 38.988 286.46 39.432 284.084 39.432C282.428 39.432 281.132 39.288 280.196 39C279.26 38.736 278.624 38.532 278.288 38.388L278.9 35.508C279.284 35.652 279.896 35.868 280.736 36.156C281.576 36.444 282.692 36.588 284.084 36.588Z" fill="white"/>
</svg>
